<svg width="581" height="164" viewBox="0 0 581 164" fill="none" xmlns="http://www.w3.org/2000/svg">
<path d="M32 130.667V37.3333H69.4774C76.2349 37.3333 82.3255 38.4444 87.7493 40.6667C93.262 42.8889 97.9744 46.0889 101.887 50.2667C105.799 54.4444 108.822 59.3778 110.956 65.0667C113.09 70.7556 114.157 77.0667 114.157 84C114.157 90.9333 113.09 97.2889 110.956 103.067C108.822 108.756 105.799 113.689 101.887 117.867C98.0633 121.956 93.3953 125.111 87.8826 127.333C82.37 129.556 76.2349 130.667 69.4774 130.667H32ZM49.2049 117.2L48.0046 114.667H68.8105C73.1673 114.667 77.0796 113.956 80.5472 112.533C84.0149 111.111 86.9046 109.111 89.2164 106.533C91.6171 103.867 93.4398 100.622 94.6846 96.8C96.0183 92.9778 96.6852 88.7111 96.6852 84C96.6852 79.2889 96.0183 75.0667 94.6846 71.3333C93.4398 67.5111 91.6171 64.2667 89.2164 61.6C86.8157 58.9333 83.8815 56.8889 80.4138 55.4667C77.0351 54.0444 73.1673 53.3333 68.8105 53.3333H47.6045L49.2049 51.0667V117.2Z" fill="#262626"/>
<path d="M155.216 132C148.192 132 141.924 130.444 136.411 127.333C130.898 124.133 126.542 119.778 123.341 114.267C120.229 108.756 118.673 102.489 118.673 95.4667C118.673 88.4444 120.229 82.1778 123.341 76.6667C126.542 71.1556 130.898 66.8444 136.411 63.7333C141.924 60.5333 148.192 58.9333 155.216 58.9333C162.152 58.9333 168.376 60.5333 173.889 63.7333C179.401 66.8444 183.714 71.1556 186.826 76.6667C190.026 82.1778 191.627 88.4444 191.627 95.4667C191.627 102.489 190.026 108.756 186.826 114.267C183.714 119.778 179.401 124.133 173.889 127.333C168.376 130.444 162.152 132 155.216 132ZM155.216 117.467C159.04 117.467 162.463 116.533 165.486 114.667C168.509 112.711 170.865 110.089 172.555 106.8C174.333 103.422 175.178 99.6444 175.089 95.4667C175.178 91.2 174.333 87.4222 172.555 84.1333C170.865 80.7556 168.509 78.1333 165.486 76.2667C162.463 74.4 159.04 73.4667 155.216 73.4667C151.393 73.4667 147.926 74.4444 144.814 76.4C141.79 78.2667 139.434 80.8889 137.745 84.2667C136.055 87.5556 135.211 91.2889 135.211 95.4667C135.211 99.6444 136.055 103.422 137.745 106.8C139.434 110.089 141.79 112.711 144.814 114.667C147.926 116.533 151.393 117.467 155.216 117.467Z" fill="#262626"/>
<path d="M231.645 132C224.62 132 218.352 130.444 212.839 127.333C207.327 124.133 202.97 119.778 199.769 114.267C196.657 108.756 195.101 102.489 195.101 95.4667C195.101 88.4444 196.657 82.1778 199.769 76.6667C202.97 71.1556 207.327 66.8444 212.839 63.7333C218.352 60.5333 224.62 58.9333 231.645 58.9333C238.58 58.9333 244.804 60.5333 250.317 63.7333C255.829 66.8444 260.142 71.1556 263.254 76.6667C266.455 82.1778 268.055 88.4444 268.055 95.4667C268.055 102.489 266.455 108.756 263.254 114.267C260.142 119.778 255.829 124.133 250.317 127.333C244.804 130.444 238.58 132 231.645 132ZM231.645 117.467C235.468 117.467 238.891 116.533 241.914 114.667C244.937 112.711 247.294 110.089 248.983 106.8C250.761 103.422 251.606 99.6444 251.517 95.4667C251.606 91.2 250.761 87.4222 248.983 84.1333C247.294 80.7556 244.937 78.1333 241.914 76.2667C238.891 74.4 235.468 73.4667 231.645 73.4667C227.821 73.4667 224.354 74.4444 221.242 76.4C218.219 78.2667 215.862 80.8889 214.173 84.2667C212.484 87.5556 211.639 91.2889 211.639 95.4667C211.639 99.6444 212.484 103.422 214.173 106.8C215.862 110.089 218.219 112.711 221.242 114.667C224.354 116.533 227.821 117.467 231.645 117.467Z" fill="#262626"/>
<path d="M279.994 130.667V54C279.994 49.8222 280.927 46.0889 282.795 42.8C284.662 39.4222 287.24 36.8 290.53 34.9333C293.82 32.9778 297.599 32 301.867 32C304.89 32 307.691 32.5333 310.269 33.6C312.937 34.6667 315.115 36.0889 316.804 37.8667L311.736 50C310.58 49.1111 309.336 48.4 308.002 47.8667C306.757 47.2444 305.557 46.9333 304.401 46.9333C302.623 46.9333 301.111 47.2444 299.866 47.8667C298.71 48.4 297.821 49.2444 297.199 50.4C296.665 51.5555 296.399 52.9778 296.399 54.6667V130.667H288.13C286.618 130.667 285.151 130.667 283.728 130.667C282.395 130.667 281.15 130.667 279.994 130.667ZM269.057 76.2667V61.8667H312.27V76.2667H269.057Z" fill="#262626"/>
<path d="M348.683 132C341.659 132 335.391 130.444 329.878 127.333C324.365 124.133 320.008 119.778 316.808 114.267C313.696 108.756 312.14 102.489 312.14 95.4667C312.14 88.4444 313.696 82.1778 316.808 76.6667C320.008 71.1556 324.365 66.8444 329.878 63.7333C335.391 60.5333 341.659 58.9333 348.683 58.9333C355.619 58.9333 361.843 60.5333 367.355 63.7333C372.868 66.8444 377.18 71.1556 380.292 76.6667C383.493 82.1778 385.094 88.4444 385.094 95.4667C385.094 102.489 383.493 108.756 380.292 114.267C377.18 119.778 372.868 124.133 367.355 127.333C361.843 130.444 355.619 132 348.683 132ZM348.683 117.467C352.507 117.467 355.93 116.533 358.953 114.667C361.976 112.711 364.332 110.089 366.022 106.8C367.8 103.422 368.645 99.6444 368.556 95.4667C368.645 91.2 367.8 87.4222 366.022 84.1333C364.332 80.7556 361.976 78.1333 358.953 76.2667C355.93 74.4 352.507 73.4667 348.683 73.4667C344.86 73.4667 341.392 74.4444 338.28 76.4C335.257 78.2667 332.901 80.8889 331.212 84.2667C329.522 87.5556 328.678 91.2889 328.678 95.4667C328.678 99.6444 329.522 103.422 331.212 106.8C332.901 110.089 335.257 112.711 338.28 114.667C341.392 116.533 344.86 117.467 348.683 117.467Z" fill="#262626"/>
<path d="M393.102 130.667V60.4H409.107L409.374 82.8L407.24 77.7333C408.218 74.1778 409.907 70.9778 412.308 68.1333C414.708 65.2889 417.465 63.0667 420.577 61.4667C423.778 59.7778 427.068 58.9333 430.446 58.9333C431.958 58.9333 433.38 59.0667 434.714 59.3333C436.137 59.6 437.293 59.9111 438.182 60.2667L433.914 78.1333C432.847 77.6 431.602 77.2 430.18 76.9333C428.846 76.5778 427.468 76.4 426.045 76.4C423.733 76.4 421.555 76.8444 419.51 77.7333C417.554 78.5333 415.82 79.6889 414.308 81.2C412.886 82.7111 411.73 84.4889 410.841 86.5333C409.952 88.4889 409.507 90.6667 409.507 93.0667V130.667H393.102Z" fill="#262626"/>
<path d="M442.303 130.667V60.4H458.307L458.574 74.6667L455.907 75.7333C456.707 73.4222 457.907 71.2889 459.508 69.3333C461.108 67.2889 463.02 65.5111 465.243 64C467.466 62.4889 469.822 61.3333 472.311 60.5333C474.801 59.6444 477.38 59.2 480.047 59.2C483.87 59.2 487.249 59.8222 490.183 61.0667C493.117 62.3111 495.562 64.2222 497.519 66.8C499.564 69.3778 501.12 72.6667 502.187 76.6667L499.653 76.1333L500.586 74C501.653 71.8667 503.076 69.9111 504.854 68.1333C506.632 66.3556 508.633 64.8 510.856 63.4667C513.079 62.0444 515.39 60.9778 517.791 60.2667C520.281 59.5556 522.681 59.2 524.993 59.2C530.328 59.2 534.774 60.2667 538.33 62.4C541.887 64.5333 544.554 67.7778 546.333 72.1333C548.111 76.4889 549 81.8667 549 88.2667V130.667H532.595V89.3333C532.595 84 531.528 80.0444 529.394 77.4667C527.349 74.8889 524.148 73.6 519.792 73.6C517.48 73.6 515.346 74 513.39 74.8C511.434 75.5111 509.7 76.5778 508.188 78C506.766 79.3333 505.654 80.9333 504.854 82.8C504.054 84.5778 503.654 86.5778 503.654 88.8V130.667H487.249V89.2C487.249 84.1333 486.138 80.2667 483.915 77.6C481.781 74.9333 478.713 73.6 474.712 73.6C472.4 73.6 470.266 74 468.31 74.8C466.443 75.5111 464.754 76.5778 463.242 78C461.819 79.3333 460.708 80.8889 459.908 82.6667C459.108 84.4444 458.707 86.4 458.707 88.5333V130.667H442.303Z" fill="#262626"/>
</svg>
